<svg width="46" height="46" viewBox="0 0 46 46" fill="none" xmlns="http://www.w3.org/2000/svg">
<path d="M22.7815 1.09927C22.6956 4.5771 24.3634 4.63676 24.3634 4.63676H26.246C26.246 4.63676 27.809 4.54272 27.7239 1.06488L22.7815 1.09927" fill="#231F20"/>
<path d="M22.2961 2.89422C22.196 9.10051 24.1483 9.20737 24.1483 9.20737H26.352C26.352 9.20737 28.1819 9.03916 28.0819 2.8328L22.2961 2.89422Z" fill="white" stroke="#231F20" stroke-width="1.3855" stroke-miterlimit="3.864"/>
<path d="M28.4445 2.95292L22.2809 2.95292M28.4445 1.00003L22.2809 1.00003L28.4445 1.00003ZM28.4445 1.65086L22.2809 1.65086L28.4445 1.65086ZM28.4445 2.3021L22.2809 2.3021L28.4445 2.3021Z" stroke="#7B7979" stroke-width="1.38546" stroke-miterlimit="3.864"/>
<path d="M16.3263 1.0993C16.2405 4.57713 17.9083 4.63679 17.9083 4.63679H19.7909C19.7909 4.63679 21.3539 4.54275 21.2688 1.06491L16.3263 1.0993" fill="#231F20"/>
<path d="M15.8409 2.89422C15.7409 9.10051 17.6932 9.20737 17.6932 9.20737H19.8969C19.8969 9.20737 21.7268 9.03916 21.6268 2.8328L15.8409 2.89422Z" fill="white" stroke="#231F20" stroke-width="1.3855" stroke-miterlimit="3.864"/>
<path d="M21.9894 2.95292L15.8258 2.95292M21.9894 1.00003L15.8258 1.00003L21.9894 1.00003ZM21.9894 1.65086L15.8258 1.65086L21.9894 1.65086ZM21.9894 2.3021L15.8258 2.3021L21.9894 2.3021Z" stroke="#7B7979" stroke-width="1.38546" stroke-miterlimit="3.864"/>
<path d="M26.6345 36.8708C26.6345 36.8708 28.4375 27.8686 33.1988 23.353C37.9601 18.8374 42.9864 18.2471 43.923 14.292C44.1237 13.4456 44.2237 12.5698 44.2237 12.5698L26.9353 10.0357L25.7067 36.5021L26.6345 36.8708" fill="white"/>
<path d="M17.834 36.8708C17.834 36.8708 16.0311 27.8686 11.2697 23.353C6.50839 18.8374 1.48215 18.2471 0.545557 14.292C0.344859 13.4456 0.244843 12.5698 0.244843 12.5698L17.5333 10.0357L18.7618 36.5021L17.834 36.8708" fill="white"/>
<path d="M16.9884 9.17065L1.11725e-05 10.9065V16.3592L10.6242 24.3343H13.5617C12.3 22.8276 10.7201 21.4079 8.71789 20.1046C4.67419 17.4723 2.15903 16.9644 1.54613 12.8772L17.0364 10.6065L16.9884 9.17065" fill="#231F20"/>
<path d="M17.6912 14.6847L0.102056 14.6847V13.7633L17.5912 12.8258L17.6912 14.6847" fill="#231F20"/>
<path d="M11.5283 24.3621H19.1204" stroke="#231F20" stroke-width="0.692728" stroke-miterlimit="3.864"/>
<path d="M26.9932 35.9465C26.9932 35.9465 28.7961 26.9443 33.5574 22.4288C38.3188 17.9132 43.345 17.3228 44.2816 13.3677C44.4823 12.5214 44.5823 11.6456 44.5823 11.6456L27.2939 9.11148L26.0654 35.5778L26.9932 35.9465V35.9465Z" stroke="#231F20" stroke-width="1.38546" stroke-miterlimit="3.864"/>
<path d="M27.3918 9.17832L16.9677 9.15057L17.0772 29.1352C17.0772 29.1352 16.7494 32.8388 17.8421 38.8943C18.4199 42.0933 20.5512 44.4832 22.2332 44.5698C23.9158 44.4832 25.9376 42.0933 26.5154 38.8943C27.6081 32.8388 27.2803 29.1352 27.2803 29.1352L27.3952 9.17958" fill="white"/>
<path d="M27.5946 9.16974L44.5823 10.9056V16.3582L33.9581 24.3334H31.0213C32.2823 22.8267 33.8629 21.407 35.8651 20.1037C39.9081 17.4714 42.4233 16.9635 43.0369 12.8763L27.5466 10.6056L27.5946 9.16974" fill="#231F20"/>
<path d="M26.8918 14.6847L44.4809 14.6847V13.7633L26.9918 12.8258L26.8918 14.6847" fill="#231F20"/>
<path d="M33.0547 24.3621H25.4626" stroke="#231F20" stroke-width="0.692728" stroke-miterlimit="3.864"/>
<path d="M27.3652 9.17695L16.9411 9.1492L17.0506 29.1338C17.0506 29.1338 16.7228 32.8374 17.8155 38.8929C18.3933 42.0919 20.5246 44.4819 22.2065 44.5684C23.8892 44.4819 25.911 42.0919 26.4888 38.8929C27.5815 32.8374 27.2537 29.1338 27.2537 29.1338L27.3686 9.1782L27.3652 9.17695Z" stroke="#231F20" stroke-width="1.38546" stroke-miterlimit="3.864"/>
<path d="M19.9928 37.3104C20.2651 38.0875 21.3031 38.2997 22.3025 38.1679C23.3107 38.2955 24.4386 38.1066 24.7176 37.3104L25.7556 37.4475C25.3785 38.5221 23.904 38.9741 22.3066 38.8308C20.7219 38.9778 19.3231 38.4985 18.9542 37.4475L19.9928 37.3104Z" fill="#918F90" stroke="#231F20" stroke-width="0.692728" stroke-miterlimit="3.864"/>
<path d="M21.7565 4.52048C21.7565 4.52048 20.9551 7.13248 20.8551 10.2192C20.7551 13.306 21.6011 15.3649 21.6011 15.3649H22.3018C22.3018 15.3649 23.1033 13.306 23.0033 10.2192C22.9033 7.13248 21.7565 4.52048 21.7565 4.52048" fill="white"/>
</svg>
