<svg width="102" height="68" viewBox="0 0 102 68" fill="none" xmlns="http://www.w3.org/2000/svg">
<path d="M43.0204 18.2795H58.9796V59.2258H43.0204V18.2795Z" fill="#6187C1"/>
<path d="M9.68183 26.4802C7.63477 25.6646 8.21857 22.6223 10.4222 22.6223H41.2918C42.3964 22.6223 43.2918 23.5177 43.2918 24.6223V51.1953C43.2918 52.9909 41.1091 53.8768 39.8576 52.5893L17.8124 29.9076C17.6164 29.7058 17.3799 29.5477 17.1186 29.4436L9.68183 26.4802Z" fill="url(#paint0_linear)"/>
<path d="M92.3182 26.4743C94.3652 25.6586 93.7814 22.6163 91.5778 22.6163H60.7082C59.6036 22.6163 58.7082 23.5118 58.7082 24.6163V51.1893C58.7082 52.9849 60.8909 53.8709 62.1424 52.5833L84.1876 29.9016C84.3836 29.6998 84.6201 29.5417 84.8814 29.4376L92.3182 26.4743Z" fill="url(#paint1_linear)"/>
<path d="M51.1427 0L59.4418 18.5625H42.8436L51.1427 0Z" fill="#AADDD4"/>
<path d="M29.9628 12.105C29.9628 10.7361 31.0724 9.62646 32.4413 9.62646V9.62646C33.8102 9.62646 34.9198 10.7361 34.9198 12.105V22.6223H29.9628V12.105Z" fill="#AADDD4"/>
<path d="M18.3589 12.0797C18.3589 10.7109 19.4686 9.6012 20.8375 9.6012V9.6012C22.2063 9.6012 23.316 10.7109 23.316 12.0797V22.597H18.3589V12.0797Z" fill="#AADDD4"/>
<path d="M67.3833 12.0797C67.3833 10.7109 68.493 9.6012 69.8618 9.6012V9.6012C71.2307 9.6012 72.3404 10.7109 72.3404 12.0797V22.597H67.3833V12.0797Z" fill="#AADDD4"/>
<path d="M79.0845 12.0797C79.0845 10.7109 80.1942 9.6012 81.5631 9.6012V9.6012C82.9319 9.6012 84.0416 10.7109 84.0416 12.0797V22.597H79.0845V12.0797Z" fill="#AADDD4"/>
<path d="M43.2784 59.2258H59.6598L63.8367 68H38.8571L43.2784 59.2258Z" fill="#306495"/>
<ellipse cx="49.6037" cy="26.5692" rx="2.20315" ry="1.9253" fill="white"/>
<ellipse cx="49.6037" cy="33.4039" rx="2.20315" ry="1.9253" fill="#DBFF00"/>
<defs>
<linearGradient id="paint0_linear" x1="15.7525" y1="50.7318" x2="43.2901" y2="50.2906" gradientUnits="userSpaceOnUse">
<stop stop-color="#4B6DAE"/>
<stop offset="0.229784" stop-color="#8399C1"/>
<stop offset="0.48317" stop-color="#AADDD4"/>
<stop offset="0.740636" stop-color="#728AB8"/>
<stop offset="1" stop-color="#4B6DAE"/>
</linearGradient>
<linearGradient id="paint1_linear" x1="82.5022" y1="42.2063" x2="55.6238" y2="42.2063" gradientUnits="userSpaceOnUse">
<stop stop-color="#4B6DAE"/>
<stop offset="0.252441" stop-color="#728AB8"/>
<stop offset="0.489081" stop-color="#AADDD4"/>
<stop offset="0.764297" stop-color="#728AB8"/>
<stop offset="1" stop-color="#4B6DAE"/>
</linearGradient>
</defs>
</svg>
